<svg width="32" height="32" viewBox="0 0 32 32" fill="none" xmlns="http://www.w3.org/2000/svg">
  <!-- Background circle with gradient -->
  <defs>
    <linearGradient id="bgGradient" x1="0%" y1="0%" x2="100%" y2="100%">
      <stop offset="0%" style="stop-color:#667eea;stop-opacity:1" />
      <stop offset="100%" style="stop-color:#764ba2;stop-opacity:1" />
    </linearGradient>
    <linearGradient id="sunGradient" x1="0%" y1="0%" x2="100%" y2="100%">
      <stop offset="0%" style="stop-color:#ffd700;stop-opacity:1" />
      <stop offset="100%" style="stop-color:#ff8c00;stop-opacity:1" />
    </linearGradient>
    <linearGradient id="panelGradient" x1="0%" y1="0%" x2="100%" y2="100%">
      <stop offset="0%" style="stop-color:#2c3e50;stop-opacity:1" />
      <stop offset="100%" style="stop-color:#34495e;stop-opacity:1" />
    </linearGradient>
  </defs>
  
  <!-- Background circle -->
  <circle cx="16" cy="16" r="15" fill="url(#bgGradient)" stroke="#fff" stroke-width="1"/>
  
  <!-- Sun rays -->
  <g stroke="url(#sunGradient)" stroke-width="1.5" stroke-linecap="round">
    <line x1="16" y1="4" x2="16" y2="7"/>
    <line x1="16" y1="25" x2="16" y2="28"/>
    <line x1="4" y1="16" x2="7" y2="16"/>
    <line x1="25" y1="16" x2="28" y2="16"/>
    <line x1="8" y1="8" x2="10.5" y2="10.5"/>
    <line x1="21.5" y1="21.5" x2="24" y2="24"/>
    <line x1="8" y1="24" x2="10.5" y2="21.5"/>
    <line x1="21.5" y1="10.5" x2="24" y2="8"/>
  </g>
  
  <!-- Sun center -->
  <circle cx="16" cy="16" r="3" fill="url(#sunGradient)"/>
  
  <!-- Solar panel representation -->
  <rect x="10" y="18" width="12" height="6" fill="url(#panelGradient)" rx="1"/>
  <rect x="11" y="19" width="2" height="2" fill="#4CAF50" opacity="0.8"/>
  <rect x="14" y="19" width="2" height="2" fill="#4CAF50" opacity="0.8"/>
  <rect x="17" y="19" width="2" height="2" fill="#4CAF50" opacity="0.8"/>
  <rect x="20" y="19" width="2" height="2" fill="#4CAF50" opacity="0.8"/>
  
  <!-- Energy waves -->
  <path d="M 6 22 Q 8 20 10 22 Q 12 24 14 22 Q 16 20 18 22 Q 20 24 22 22 Q 24 20 26 22" 
        stroke="#4CAF50" stroke-width="1.5" fill="none" opacity="0.7"/>
</svg> 